# xmcd
#
# Track frame offsets:
#	150
#	15785
#	33070
#	47255
#	62204
#	80582
#	96458
#	111793
#	128025
#	144424
#	161166
#
# Disc length: 2409 seconds
#
# Revision: 1
# Processed by: cddbd v1.5.2PL0 Copyright (c) Steve Scherf et al.
# Submitted via: audiograbber 1.83.01
#
DISCID=8309670b
DTITLE=Love and Theft - World Wide Open
DYEAR=2013
DGENRE=Country
TTITLE0=World Wide Open
TTITLE1=Runaway
TTITLE2=Dancing In Circles
TTITLE3=It's Up To You
TTITLE4=You To Miss
TTITLE5=Can't Go Back
TTITLE6=Don't Wake Me
TTITLE7=Freedom
TTITLE8=Slow Down
TTITLE9=Me Without You
TTITLE10=Drowning
EXTD=
EXTT0=
EXTT1=
EXTT2=
EXTT3=
EXTT4=
EXTT5=
EXTT6=
EXTT7=
EXTT8=
EXTT9=
EXTT10=
PLAYORDER=
